<svg xmlns="http://www.w3.org/2000/svg" version="1.0" width="512.000000pt" height="512.000000pt" viewBox="0 0 512.000000 512.000000" preserveAspectRatio="xMidYMid meet">

<g transform="translate(0.000000,512.000000) scale(0.100000,-0.100000)" fill="#545454" stroke="none">
<path d="M3564 3658 c-165 -211 -398 -517 -518 -680 -120 -164 -221 -300 -225 -302 -4 -3 -109 136 -232 309 l-224 314 -54 1 -53 0 24 -32 c14 -18 127 -176 253 -351 218 -304 227 -318 212 -340 -8 -12 -128 -177 -266 -367 l-251 -345 41 -3 c23 -2 47 -1 54 1 6 3 106 135 220 294 115 158 223 307 241 331 l32 43 242 -336 242 -335 54 0 53 0 -265 367 c-146 202 -263 372 -260 378 3 10 832 1216 943 1373 24 34 42 62 40 62 -2 0 -139 -172 -303 -382z" fill="#545454"/>
<path d="M0 2580 l0 -720 45 0 45 0 0 662 c0 565 2 660 14 648 7 -8 211 -303 452 -655 252 -369 560 -804 727 -1027 159 -214 291 -388 293 -388 3 0 -325 494 -729 1098 l-734 1097 -57 3 -56 3 0 -721z" fill="#545454"/>
<path d="M1210 2580 l0 -720 485 0 485 0 0 35 0 35 -440 0 -440 0 0 320 0 320 410 0 410 0 0 35 0 35 -410 0 -410 0 0 290 0 290 435 0 435 0 0 40 0 40 -480 0 -480 0 0 -720z" fill="#545454"/>
<path d="M3450 3260 l0 -40 250 0 250 0 0 -680 0 -680 45 0 45 0 0 680 0 680 255 0 255 0 0 40 0 40 -550 0 -550 0 0 -40z" fill="#545454"/>
<path d="M4943 2266 c-86 -39 -65 -141 34 -165 61 -16 93 -36 93 -61 0 -41 -92 -56 -125 -20 -23 26 -67 28 -58 3 27 -78 159 -94 212 -26 26 32 27 74 4 102 -10 12 -49 31 -88 44 -56 17 -71 26 -73 44 -7 50 93 69 118 22 14 -25 50 -25 50 -1 0 52 -101 88 -167 58z" fill="#545454"/>
<path d="M4768 2144 c-2 -103 -6 -129 -19 -137 -21 -13 -69 -1 -69 18 0 9 -10 15 -25 15 -30 0 -32 -18 -5 -53 25 -31 63 -41 106 -27 53 18 64 50 64 190 l0 120 -25 0 -24 0 -3 -126z" fill="#545454"/>
<path d="M4514 2006 c-10 -26 4 -48 28 -44 17 2 23 10 23 28 0 18 -6 26 -23 28 -13 2 -25 -3 -28 -12z" fill="#545454"/>
</g>
</svg>